<svg xmlns="http://www.w3.org/2000/svg" xmlns:xlink="http://www.w3.org/1999/xlink" viewBox="0 0 784.6 280.6" width="500" height="178" alt="Seidr"><defs><style>.a{fill:url(#a);}.b{fill:url(#b);}.c{fill:url(#c);}.d{fill:url(#d);}.e{fill-rule:evenodd;fill:url(#e);}</style><linearGradient id="a" x1="188.6" y1="271.52" x2="188.6" y2="88.12" gradientUnits="userSpaceOnUse"><stop offset="0" stop-color="#764c9f"/><stop offset="1" stop-color="#6979bb"/></linearGradient><linearGradient id="b" x1="354.94" y1="270.93" x2="354.94" y2="88.12" xlink:href="#a"/><linearGradient id="c" x1="643.29" y1="271.52" x2="643.29" y2="3.45" xlink:href="#a"/><linearGradient id="d" x1="834.16" y1="268" x2="834.16" y2="88.12" xlink:href="#a"/><linearGradient id="e" x1="496" y1="284" x2="496" y2="75" xlink:href="#a"/></defs><path class="a" d="M222.6,143a33.5,33.5,0,0,0,15.1-7.7c5.3-4.7,8-9.9,8-15.5,0-9-4.9-16.5-14.8-22.6s-22.5-9.1-37.8-9.1q-29.5,0-47.4,12c-12.5,8.5-18.8,19.9-18.8,34,0,11.4,5.2,21.7,15.4,30.8a96.2,96.2,0,0,0,16.6,11.8c6.3,3.7,11.5,6.4,15.4,8.2l7.3,3.3,6.4,2.7c3.4,1.4,7.8,3.3,13.2,5.8,18,8.2,27,17.6,27,28.4,0,9.2-3.5,16.5-10.5,22s-16.6,8.2-28.7,8.2-22.2-3-30-9-10.5-11.3-10.5-18,1.8-13.9,5.5-18.5l-6.4-7.4a40.1,40.1,0,0,0-18.9,9.9c-5.9,5.6-8.9,11.9-9.1,18.9-.4,11.9,6.6,21.8,21.1,29.5s28.6,10.8,46.3,10.8,35.1-4.5,48.6-13.5a52.3,52.3,0,0,0,16-16.1,37.3,37.3,0,0,0,6-20.3c0-7.3-1.5-13.3-4.5-18.2s-7.8-10-14.4-15.3-22.3-13.6-47-24.7c-3.2-1.5-7.2-3.4-11.9-5.8-16.2-8.3-24.3-17.2-24.3-26.9,0-8,2.8-14.4,8.3-19.1a30.8,30.8,0,0,1,10.4-5.8c4.1-1.3,10-2,17.6-2a36,36,0,0,1,19.7,5.3c5.5,3.6,8.3,7.7,8.3,12.3s-1.9,9.9-5.6,15.6Z" transform="translate(-119.6 -3.4)"/><path class="b" d="M417.4,237.8q-16.3,14.1-47.2,14.1c-32.7,0-50.7-20-54.2-59.9,37.8-.3,66.1-7.1,84.7-20.2q24-17.1,24-41.8c0-12.8-4.9-22.8-14.8-30.2s-24.7-11.7-43.2-11.7q-36.1,0-59.3,26.4T284.1,182q0,39.8,21,63.9t60.5,25q40,0,60.2-24.7Zm-96.1-95.6a85.1,85.1,0,0,1,6.6-15,54.3,54.3,0,0,1,9.2-12.2,41.5,41.5,0,0,1,11.9-8.2,36,36,0,0,1,15.1-3c5.7,0,10.4.8,14.2,2.5,9.8,4.3,14.6,12.1,14.6,23.4,0,8.7-2.2,16-6.7,21.8-12.3,15.9-35.8,24.1-70.6,24.8a115.5,115.5,0,0,1,5.7-34.1Z" transform="translate(-119.6 -3.4)"/><path class="c" d="M641.2,86.8q-37.7,0-59.4,29Q562,142.2,562,179.2t21.2,63.3q22.9,29,58.9,29,37.6,0,60.1-28.5t22.4-78q0-62.6-30.5-104.7Q660.2,13.4,592.9,3.4l-3.1,12.9q68.3,15.1,91,82.5-16.2-12-39.6-12Zm40.9,143.7a43.1,43.1,0,0,1-14.8,18.2c-6.3,4.4-14.3,6.6-23.9,6.6s-17.5-2.3-23.5-6.9q-24.4-18.6-24.4-68.7c0-22.6,3.4-40.3,10-53.2q12-23.9,38.5-23.9,47.3,0,47.2,66.1,0,41.7-9.1,61.8Z" transform="translate(-119.6 -3.4)"/><path class="d" d="M874.3,150.7a43.5,43.5,0,0,0,20.2-12.8c6.5-6.8,9.7-14.2,9.7-22.1,0-9.9-5-17.1-14.8-21.8a54.1,54.1,0,0,0-15.5-4.6,127.8,127.8,0,0,0-17.1-1.3c-5.5,0-12.7.4-21.5,1.2l-12,1c-5.1.5-13.6.7-25.6.7H767.4v12.5a77.8,77.8,0,0,1,12,2.3,17,17,0,0,1,7.7,5.3c2.1,2.6,3.1,9.1,3.1,19.8V232.4a65.4,65.4,0,0,1-.8,11.2,12.7,12.7,0,0,1-4.2,7.3c-2.3,2.1-9.2,3.8-20.8,4.9l-.3.2v12H862V255.8c-18.4-.5-30.1-2.3-35.2-5.2a11.5,11.5,0,0,1-5.6-6.6,38.1,38.1,0,0,1-1.2-10.4V122.2c0-12.1,9.2-18.1,27.8-18.1q12.9,0,19.2,3.6c5,3.1,7.4,7.2,7.4,12.5,0,10.7-2.7,18.7-8.2,24Z" transform="translate(-119.6 -3.4)"/><path class="e" d="M528,180l-24-24V131l24-24L496,75l-32,32,24,24v25l-24,24,24,24v24l-24,24,32,32,32-32-24-24V204Zm-44-72,12-12,12,12-12,12Zm24,144-12,12-12-12,12-12Zm-12-60-12-12,12-12,12,12Z" transform="translate(-119.6 -3.4)"/></svg>
